<?xml version="1.0"?>
<svg version="1.1" xmlns="http://www.w3.org/2000/svg" width="400" height="200" ><path fill="#ecf0f1" d="M36.650390625,111.923828125l16.9921875,0l0,22.20703125q-4.130859375,1.34765625-7.7783203125,1.8896484375t-7.4560546875,0.5419921875q-9.697265625,0-14.8095703125-5.6982421875t-5.1123046875-16.3623046875q0-10.37109375,5.9326171875-16.171875t16.4501953125-5.80078125q6.591796875,0,12.71484375,2.63671875l-3.017578125,7.265625q-4.6875-2.34375-9.755859375-2.34375q-5.888671875,0-9.43359375,3.955078125t-3.544921875,10.634765625q0,6.97265625,2.8564453125,10.6494140625t8.3056640625,3.6767578125q2.841796875,0,5.771484375-0.5859375l0-8.935546875l-8.115234375,0l0-7.55859375z M65.99912109375,131.787109375q0-2.4609375,1.318359375-3.720703125t3.837890625-1.259765625q2.431640625,0,3.7646484375,1.2890625t1.3330078125,3.69140625q0,2.314453125-1.34765625,3.6474609375t-3.75,1.3330078125q-2.4609375,0-3.80859375-1.3037109375t-1.34765625-3.6767578125z M98.2775390625,112.158203125l2.9296875,0q4.306640625,0,6.357421875-1.435546875t2.05078125-4.51171875q0-3.046875-2.0947265625-4.3359375t-6.4892578125-1.2890625l-2.75390625,0l0,11.572265625z M98.2775390625,119.541015625l0,16.435546875l-9.08203125,0l0-42.83203125l12.48046875,0q8.73046875,0,12.919921875,3.1787109375t4.189453125,9.6533203125q0,3.779296875-2.080078125,6.7236328125t-5.888671875,4.6142578125q9.66796875,14.443359375,12.59765625,18.662109375l-10.078125,0l-10.224609375-16.435546875l-4.833984375,0z M157.59697265625,135.9765625l-24.66796875,0l0-42.83203125l24.66796875,0l0,7.44140625l-15.5859375,0l0,9.404296875l14.501953125,0l0,7.44140625l-14.501953125,0l0,11.044921875l15.5859375,0l0,7.5z M195.090234375,93.14453125l9.169921875,0l-14.560546875,42.83203125l-9.90234375,0l-14.53125-42.83203125l9.169921875,0l8.056640625,25.48828125q0.673828125,2.255859375,1.3916015625,5.2587890625t0.8935546875,4.1748046875q0.322265625-2.6953125,2.197265625-9.43359375z M238.44287109375,135.9765625l-24.66796875,0l0-42.83203125l24.66796875,0l0,7.44140625l-15.5859375,0l0,9.404296875l14.501953125,0l0,7.44140625l-14.501953125,0l0,11.044921875l15.5859375,0l0,7.5z M260.5845703125,112.158203125l2.9296875,0q4.306640625,0,6.357421875-1.435546875t2.05078125-4.51171875q0-3.046875-2.0947265625-4.3359375t-6.4892578125-1.2890625l-2.75390625,0l0,11.572265625z M260.5845703125,119.541015625l0,16.435546875l-9.08203125,0l0-42.83203125l12.48046875,0q8.73046875,0,12.919921875,3.1787109375t4.189453125,9.6533203125q0,3.779296875-2.080078125,6.7236328125t-5.888671875,4.6142578125q9.66796875,14.443359375,12.59765625,18.662109375l-10.078125,0l-10.224609375-16.435546875l-4.833984375,0z M330.77314453125,114.150390625q0,10.576171875-6.0205078125,16.201171875t-17.3876953125,5.625l-12.12890625,0l0-42.83203125l13.447265625,0q10.48828125,0,16.2890625,5.537109375t5.80078125,15.46875z M321.33955078125,114.384765625q0-13.798828125-12.1875-13.798828125l-4.833984375,0l0,27.890625l3.896484375,0q13.125,0,13.125-14.091796875z M357.104296875,110.78125l8.935546875-17.63671875l9.78515625,0l-14.208984375,26.162109375l0,16.669921875l-9.0234375,0l0-16.376953125l-14.208984375-26.455078125l9.84375,0z"/><path fill="#" d=""/></svg>
